HIERARCHY
ROOT joint_Root
{
	OFFSET 0.0 0.0 0.0
	CHANNELS 6 Xposition Yposition Zposition Zrotation Xrotation Yrotation 
	JOINT Hips
	{
		OFFSET 4.5925 91.4895 -427.239
		CHANNELS 6 Xposition Yposition Zposition Zrotation Xrotation Yrotation 
		JOINT Spine
		{
			OFFSET 15.7357 0.0 0.0
			CHANNELS 6 Xposition Yposition Zposition Zrotation Xrotation Yrotation 
			JOINT Chest
			{
				OFFSET 8.98455 -0.406207 0.0
				CHANNELS 6 Xposition Yposition Zposition Zrotation Xrotation Yrotation 
				JOINT Neck
				{
					OFFSET 16.3773 0.0 0.0
					CHANNELS 6 Xposition Yposition Zposition Zrotation Xrotation Yrotation 
					JOINT Head
					{
						OFFSET 6.45672 0.0 0.0
						CHANNELS 6 Xposition Yposition Zposition Zrotation Xrotation Yrotation 
						End Site
						{
							OFFSET 0.0 0.0 0.0
						}
					}
				}
				JOINT Shoulder_L
				{
					OFFSET 12.9942 -0.242716 4.98039
					CHANNELS 6 Xposition Yposition Zposition Zrotation Xrotation Yrotation 
					JOINT UpperArm_L
					{
						OFFSET 5.34809 0.0 0.0
						CHANNELS 6 Xposition Yposition Zposition Zrotation Xrotation Yrotation 
						JOINT LowerArm_L
						{
							OFFSET 24.3286 1.87007e-05 0.0
							CHANNELS 6 Xposition Yposition Zposition Zrotation Xrotation Yrotation 
							JOINT Hand_L
							{
								OFFSET 22.2916 0.0 0.0
								CHANNELS 6 Xposition Yposition Zposition Zrotation Xrotation Yrotation 
								End Site
								{
									OFFSET 0.0 0.0 0.0
								}
							}
						}
					}
				}
				JOINT Shoulder_R
				{
					OFFSET 12.9945 -0.242716 -4.98039
					CHANNELS 6 Xposition Yposition Zposition Zrotation Xrotation Yrotation 
					JOINT UpperArm_R
					{
						OFFSET -5.34813 0.0 0.0
						CHANNELS 6 Xposition Yposition Zposition Zrotation Xrotation Yrotation 
						JOINT LowerArm_R
						{
							OFFSET -24.3289 0.000322201 0.0
							CHANNELS 6 Xposition Yposition Zposition Zrotation Xrotation Yrotation 
							JOINT Hand_R
							{
								OFFSET -22.2915 -0.000108084 0.0
								CHANNELS 6 Xposition Yposition Zposition Zrotation Xrotation Yrotation 
								End Site
								{
									OFFSET 0.0 0.0 0.0
								}
							}
						}
					}
				}
			}
		}
		JOINT UpperLeg_L
		{
			OFFSET -2.19248 -6.46944 0.0
			CHANNELS 6 Xposition Yposition Zposition Zrotation Xrotation Yrotation 
			JOINT LowerLeg_L
			{
				OFFSET 39.0811 0.0 -1.23785e-05
				CHANNELS 6 Xposition Yposition Zposition Zrotation Xrotation Yrotation 
				JOINT Foot_L
				{
					OFFSET 40.9854 0.0 -1.26872e-05
					CHANNELS 6 Xposition Yposition Zposition Zrotation Xrotation Yrotation 
					JOINT Toes_L
					{
						OFFSET 11.7543 0.0 0.0
						CHANNELS 6 Xposition Yposition Zposition Zrotation Xrotation Yrotation 
						End Site
						{
							OFFSET 0.0 0.0 0.0
						}
					}
				}
			}
		}
		JOINT UpperLeg_R
		{
			OFFSET -2.19251 6.46944 0.0
			CHANNELS 6 Xposition Yposition Zposition Zrotation Xrotation Yrotation 
			JOINT LowerLeg_R
			{
				OFFSET -39.0811 -0.00228153 -0.0401928
				CHANNELS 6 Xposition Yposition Zposition Zrotation Xrotation Yrotation 
				JOINT Foot_R
				{
					OFFSET -40.9854 0.0 0.0
					CHANNELS 6 Xposition Yposition Zposition Zrotation Xrotation Yrotation 
					JOINT Toes_R
					{
						OFFSET -11.7543 0.0 0.0
						CHANNELS 6 Xposition Yposition Zposition Zrotation Xrotation Yrotation 
						End Site
						{
							OFFSET 0.0 0.0 0.0
						}
					}
				}
			}
		}
	}
}
MOTION
Frames:	6
Frame Time:	0.0333333
0.000000 0.000000 0.000000 0.000000 0.000000 -0.000000 -0.596611 89.822500 -1.458010 88.948600 -2.613760 12.789300 15.735700 0.000005 -0.000001 89.913500 76.457300 -90.002600 8.984550 -0.406207 -0.000000 19.319200 -0.048943 -0.170245 16.377300 -0.000001 -0.000001 3.736700 -2.909800 1.159430 6.456720 -0.000001 -0.000000 -7.634770 -1.973090 0.646922 12.994200 -0.242716 4.980390 -90.973300 5.588170 -80.103700 5.348090 -0.000007 -0.000001 -58.180700 31.911700 -30.356900 24.328600 0.000019 0.000005 8.030710 19.098700 -23.326000 22.291600 -0.000001 0.000005 8.573580 5.195850 2.823070 12.994500 -0.242716 -4.980390 89.419000 9.671830 -86.546000 -5.348130 -0.000001 -0.000004 -55.825400 35.553300 -26.190000 -24.328900 0.000322 -0.000009 1.130010 3.005130 -20.636400 -22.291500 -0.000108 -0.000004 16.091800 5.424190 -3.740730 -2.192480 -6.469440 -0.000000 -173.231000 -12.116700 -0.797784 39.081100 -0.000007 -0.000012 -0.224657 0.306630 36.229300 40.985400 -0.000006 -0.000013 0.002580 4.781430 -72.231500 11.754300 -0.000000 0.000003 -0.000121 -0.001214 -16.623900 -2.192510 6.469440 -0.000001 174.171000 19.138300 -179.336000 -39.081100 -0.002282 -0.040193 -0.136455 0.197133 35.332500 -40.985400 0.000008 0.000006 5.483210 12.201300 -73.183600 -11.754300 -0.000006 -0.000006 -0.001550 -0.022931 -17.505500
0.000000 0.000000 0.000000 0.000000 0.000000 -0.000000 -0.608452 89.818300 -1.456330 88.946300 -2.594090 12.821700 15.735700 0.000005 -0.000001 89.961400 76.433300 -90.046400 8.984550 -0.406207 -0.000000 19.367400 -0.026481 -0.166089 16.377300 -0.000001 -0.000001 3.750170 -2.950500 1.233080 6.456720 -0.000001 -0.000000 -7.618180 -2.005170 0.703482 12.994200 -0.242716 4.980390 -90.989200 5.628100 -80.015000 5.348090 -0.000007 -0.000001 -58.545800 30.840800 -30.041100 24.328600 0.000019 0.000005 8.545230 18.857100 -24.933400 22.291600 -0.000001 0.000005 8.762370 5.196050 2.818270 12.994500 -0.242716 -4.980390 89.407800 9.726780 -86.498700 -5.348130 -0.000001 -0.000004 -55.748900 35.535700 -26.216200 -24.328900 0.000322 -0.000009 1.122320 2.983560 -20.643400 -22.291500 -0.000108 -0.000004 16.109800 5.425380 -3.781300 -2.192480 -6.469440 -0.000000 -173.211000 -12.115100 -0.771367 39.081100 -0.000007 -0.000012 -0.226111 0.308429 36.245700 40.985400 -0.000006 -0.000013 0.003629 4.807580 -72.240400 11.754300 -0.000000 0.000003 -0.000127 -0.001260 -16.625600 -2.192510 6.469440 -0.000001 174.169000 19.135900 -179.296000 -39.081100 -0.002282 -0.040193 -0.135401 0.195640 35.333400 -40.985400 0.000008 0.000006 5.389870 12.198500 -73.168600 -11.754300 -0.000006 -0.000006 -0.001305 -0.019646 -17.372000
0.000000 0.000000 0.000000 0.000000 0.000000 -0.000000 -0.619335 89.814500 -1.452130 88.951800 -2.550220 12.833800 15.735700 0.000005 -0.000001 89.987400 76.408200 -90.068400 8.984550 -0.406207 -0.000000 19.417500 -0.014034 -0.159970 16.377300 -0.000001 -0.000001 3.785320 -2.991260 1.346190 6.456720 -0.000001 -0.000000 -7.615110 -2.034290 0.722892 12.994200 -0.242716 4.980390 -91.004300 5.650000 -79.903600 5.348090 -0.000007 -0.000001 -58.751300 29.764400 -29.812800 24.328600 0.000019 0.000005 9.424350 18.847400 -27.194200 22.291600 -0.000001 0.000005 8.945560 5.196660 2.802740 12.994500 -0.242716 -4.980390 89.398100 9.760370 -86.454000 -5.348130 -0.000001 -0.000004 -55.683100 35.503500 -26.256700 -24.328900 0.000322 -0.000009 1.121060 2.979730 -20.646500 -22.291500 -0.000108 -0.000004 16.115000 5.425320 -3.779380 -2.192480 -6.469440 -0.000000 -173.226000 -12.053300 -0.770276 39.081100 -0.000007 -0.000012 -0.226578 0.308920 36.258600 40.985400 -0.000006 -0.000013 -0.015825 4.763540 -72.246500 11.754300 -0.000000 0.000003 -0.000132 -0.001300 -16.627100 -2.192510 6.469440 -0.000001 174.152000 19.183900 -179.287000 -39.081100 -0.002282 -0.040193 -0.136224 0.196592 35.362100 -40.985400 0.000008 0.000006 5.472730 12.181400 -73.207700 -11.754300 -0.000006 -0.000006 -0.001501 -0.022281 -17.479100
0.000000 0.000000 0.000000 0.000000 0.000000 -0.000000 -0.634869 89.814100 -1.442250 88.946400 -2.522210 12.875100 15.735700 0.000005 -0.000001 90.110600 76.370500 -90.178200 8.984550 -0.406207 -0.000000 19.492900 0.044636 -0.143218 16.377300 -0.000001 -0.000001 3.837530 -3.044980 1.456000 6.456720 -0.000001 -0.000000 -7.592180 -2.117380 0.736553 12.994200 -0.242716 4.980390 -91.012200 5.634520 -79.798600 5.348090 -0.000007 -0.000001 -58.824100 28.699300 -29.767800 24.328600 0.000019 0.000005 10.547400 18.948500 -29.829400 22.291600 -0.000001 0.000005 9.467750 5.196430 2.808710 12.994500 -0.242716 -4.980390 89.384600 9.793530 -86.386600 -5.348130 -0.000001 -0.000004 -55.619400 35.422300 -26.273600 -24.328900 0.000322 -0.000009 1.097580 2.909450 -20.697600 -22.291500 -0.000108 -0.000004 15.941400 5.423250 -3.708720 -2.192480 -6.469440 -0.000000 -173.198000 -12.030600 -0.727618 39.081100 -0.000007 -0.000012 -0.226815 0.309261 36.257100 40.985400 -0.000006 -0.000013 -0.016775 4.808680 -72.245800 11.754300 -0.000000 0.000003 -0.000136 -0.001334 -16.628400 -2.192510 6.469440 -0.000001 174.164000 19.186300 -179.236000 -39.081100 -0.002282 -0.040193 -0.129771 0.187443 35.370100 -40.985400 0.000008 0.000006 5.592150 12.145700 -73.252700 -11.754300 -0.000006 -0.000006 -0.001516 -0.022486 -17.487500
0.000000 0.000000 0.000000 0.000000 0.000000 -0.000000 -0.646706 89.807800 -1.452720 88.972200 -2.426250 12.894600 15.735700 0.000005 -0.000001 90.120200 76.350400 -90.177200 8.984550 -0.406207 -0.000000 19.533200 0.050200 -0.123067 16.377300 -0.000001 -0.000001 3.930720 -3.093420 1.515910 6.456720 -0.000001 -0.000000 -7.548850 -2.183940 0.797360 12.994200 -0.242716 4.980390 -91.024000 5.636350 -79.686000 5.348090 -0.000007 -0.000001 -58.724700 27.683800 -29.885500 24.328600 0.000019 0.000005 11.591600 18.747000 -32.546500 22.291600 -0.000001 0.000005 10.046300 5.194040 2.867880 12.994500 -0.242716 -4.980390 89.376600 9.846170 -86.359000 -5.348130 -0.000001 -0.000004 -55.525100 35.421600 -26.249700 -24.328900 0.000322 -0.000009 1.102270 2.923980 -20.683800 -22.291500 -0.000108 -0.000004 16.014800 5.424660 -3.756620 -2.192480 -6.469440 -0.000000 -173.233000 -11.958600 -0.734098 39.081100 -0.000007 -0.000012 -0.227922 0.310574 36.274400 40.985400 -0.000006 -0.000013 -0.025732 4.798660 -72.245000 11.754300 -0.000000 0.000003 -0.000129 -0.001279 -16.626300 -2.192510 6.469440 -0.000001 174.097000 19.281700 -179.209000 -39.081100 -0.002282 -0.040193 -0.137966 0.198899 35.382200 -40.985400 0.000008 0.000006 5.388990 12.175700 -73.211600 -11.754300 -0.000006 -0.000006 -0.001381 -0.020674 -17.413800
0.000000 0.000000 0.000000 0.000000 0.000000 -0.000000 -0.662677 89.807700 -1.452820 88.971600 -2.358690 12.915000 15.735700 0.000005 -0.000001 90.177500 76.324300 -90.214400 8.984550 -0.406207 -0.000000 19.585200 0.079113 -0.087747 16.377300 -0.000001 -0.000001 4.012320 -3.148900 1.593800 6.456720 -0.000001 -0.000000 -7.496050 -2.220960 0.856904 12.994200 -0.242716 4.980390 -91.026800 5.618120 -79.625900 5.348090 -0.000007 -0.000001 -58.720900 26.401500 -30.096900 24.328600 0.000019 0.000005 12.813400 18.670800 -35.391600 22.291600 -0.000001 0.000005 10.341100 5.188060 3.016890 12.994500 -0.242716 -4.980390 89.372900 9.886660 -86.352500 -5.348130 -0.000001 -0.000004 -55.477300 35.355100 -26.235800 -24.328900 0.000322 -0.000009 1.101790 2.923620 -20.677900 -22.291500 -0.000108 -0.000004 16.012400 5.422000 -3.666460 -2.192480 -6.469440 -0.000000 -173.227000 -11.919500 -0.736059 39.081100 -0.000007 -0.000012 -0.228736 0.311629 36.279100 40.985400 -0.000006 -0.000013 -0.020286 4.841600 -72.231800 11.754300 -0.000000 0.000003 -0.000124 -0.001235 -16.624700 -2.192510 6.469440 -0.000001 174.107000 19.301700 -179.188000 -39.081100 -0.002282 -0.040193 -0.133526 0.192508 35.401600 -40.985400 0.000008 0.000006 5.551740 12.098400 -73.268400 -11.754300 -0.000006 -0.000006 -0.001496 -0.022225 -17.476800
